<svg width="652" height="161" viewBox="0 0 652 161" fill="none" xmlns="http://www.w3.org/2000/svg">
<g id="BeAware-Secondary Logo-LightMode" clip-path="url(#clip0_1104_1029)">
<g id="logo design ear care or ear with a love-2">
<path id="Path" d="M40.8123 106C40.3994 106 39.9816 105.951 39.5687 105.858C36.5959 105.165 34.7208 102.198 35.396 99.197L35.6729 97.9672C36.7319 93.2432 37.6354 89.1828 40.856 84.2441C41.2883 83.5804 41.7304 82.9362 42.1919 82.2725C44.7664 78.4854 46.3306 76.0258 45.7962 73.41C45.5193 72.0582 44.6304 70.8577 43.5277 70.3648C42.5756 69.9305 41.5312 70.072 40.3362 70.7796C37.6985 72.3169 34.3079 71.4384 32.7583 68.7787C31.2136 66.1337 32.1026 62.7322 34.7548 61.1754C39.0635 58.6523 43.7852 58.3156 48.0356 60.2091C52.422 62.1612 55.6281 66.2557 56.653 71.1505C58.1735 78.5196 54.3845 84.0586 51.3485 88.5191L50.1341 90.3199C48.021 93.5653 47.4381 96.1371 46.486 100.398L46.2091 101.662C45.6116 104.243 43.3431 106 40.8123 106Z" fill="#015592" fill-opacity="0.9"/>
<g id="Clipped">
<mask id="mask0_1104_1029" style="mask-type:luminance" maskUnits="userSpaceOnUse" x="10" y="38" width="67" height="106">
<path id="Path_2" fill-rule="evenodd" clip-rule="evenodd" d="M10 38H77V144H10V38Z" fill="white"/>
</mask>
<g mask="url(#mask0_1104_1029)">
<path id="Path_3" d="M35.1584 143.722C35.0082 143.722 34.8531 143.722 34.6834 143.722C24.0063 143.536 15.418 136.988 12.2822 126.669C11.3953 123.727 13.048 120.615 15.956 119.721C18.9076 118.841 21.9707 120.488 22.8576 123.42C24.5685 129.053 29.0516 132.493 34.8821 132.601C34.9742 132.601 35.0518 132.601 35.1293 132.601C40.3007 132.601 46.4511 129.674 48.7145 123.048C49.834 119.799 50.2605 116.364 50.7355 112.743C51.4383 107.227 52.2331 100.973 55.7373 94.9187C56.7017 93.2525 57.6808 91.6987 58.6307 90.1743C61.9846 84.8288 64.6308 80.5925 64.7956 74.5239C65.1204 63.6132 61.403 55.9761 54.0409 52.3995C46.1167 48.5492 34.7901 50.1812 27.7091 56.1911C23.8657 59.4551 19.8285 65.2158 22.3827 74.1379C23.226 77.094 21.5393 80.1772 18.6023 81.0225C15.6652 81.8678 12.6215 80.1772 11.7637 77.2162C8.53579 65.9585 11.7491 55.1895 20.5749 47.6843C30.9515 38.8746 47.0327 36.6417 58.8294 42.3731C65.4402 45.5735 76.4421 54.0803 75.8314 74.8464C75.5697 83.9493 71.6972 90.1254 67.9653 96.0865C67.0784 97.5035 66.1575 98.9547 65.2706 100.494C62.9006 104.608 62.3335 109.03 61.6744 114.16C61.1703 118.182 60.6372 122.34 59.1493 126.669C55.6646 136.93 46.0537 143.722 35.1584 143.722Z" fill="#015697"/>
</g>
</g>
<path id="Path_4" d="M103.853 107C103.156 107 102.447 106.876 101.75 106.624C98.7375 105.499 97.2289 102.235 98.3937 99.333L98.6862 98.6149C99.851 95.7075 103.253 94.2564 106.25 95.3807C109.267 96.5049 110.771 99.7689 109.606 102.676L109.313 103.394C108.42 105.623 106.204 107 103.853 107Z" fill="#78DBF9" fill-opacity="0.62"/>
<g id="Clipped_2">
<mask id="mask1_1104_1029" style="mask-type:luminance" maskUnits="userSpaceOnUse" x="17" y="2" width="97" height="93">
<path id="Path_5" fill-rule="evenodd" clip-rule="evenodd" d="M17 2H114V95H17V2Z" fill="white"/>
</mask>
<g mask="url(#mask1_1104_1029)">
<path id="Path_6" d="M106.818 94.1977C106.434 94.1977 106.05 94.1488 105.652 94.0705C102.664 93.4247 100.759 90.465 101.39 87.471C103.737 76.4098 103.383 65.0746 100.346 54.6788C95.3893 37.7128 83.6542 24.6311 67.3175 17.8604C54.3531 12.479 39.3818 11.9702 25.222 16.4417C22.2918 17.3663 19.1917 15.7176 18.2878 12.7872C17.3646 9.85681 18.9924 6.72582 21.9225 5.80121C38.5508 0.556808 56.1947 1.17322 71.5645 7.55749C91.0646 15.6393 105.069 31.2502 110.992 51.5331C114.554 63.7048 114.982 76.9186 112.236 89.785C111.668 92.4071 109.364 94.1977 106.818 94.1977Z" fill="#015592" fill-opacity="0.3"/>
</g>
</g>
<g id="Clipped_3">
<mask id="mask2_1104_1029" style="mask-type:luminance" maskUnits="userSpaceOnUse" x="3" y="10" width="14" height="14">
<path id="Path_7" fill-rule="evenodd" clip-rule="evenodd" d="M3 10H17V24H3V10Z" fill="white"/>
</mask>
<g mask="url(#mask2_1104_1029)">
<path id="Path_8" d="M8.53082 23.831C6.64378 23.831 4.80525 22.8416 3.78169 21.0717C2.21966 18.392 3.07829 14.9119 5.69783 13.3111L6.64378 12.6996C7.18224 12.3565 7.28896 12.2621 8.91405 11.4616C11.6694 10.1143 14.9778 11.2876 16.2924 14.1115C17.6265 16.9304 16.4622 20.3011 13.7068 21.6683C13.1829 21.9169 12.9404 22.0412 12.7706 22.1357C12.4165 22.3693 12.0672 22.608 11.3444 23.0455C10.4761 23.5774 9.49132 23.831 8.53082 23.831Z" fill="#78DBF9" fill-opacity="0.898"/>
</g>
</g>
<path id="Path_9" d="M85.1766 100C84.4869 100 83.788 99.8507 83.1119 99.5567C80.4935 98.3809 79.2864 95.2595 80.4345 92.5672C80.9791 91.2748 81.4782 89.9497 81.923 88.6106C82.8396 85.8344 85.7756 84.3319 88.4848 85.2885C91.1939 86.231 92.6415 89.2451 91.7248 92.026C91.1939 93.6451 90.5903 95.2455 89.9187 96.8225C89.0747 98.8055 87.1688 100 85.1766 100Z" fill="#2BB3F9" fill-opacity="0.8"/>
<path id="Path_10" d="M90.358 81C90.2512 81 90.1445 81 90.0523 80.9854C87.0049 80.8148 84.6612 78.2022 84.8311 75.1314C85.8695 56.5947 76.9701 41.5967 61.0396 35.0068C51.8588 31.2097 40.6788 31.1025 30.3383 34.6997C27.4269 35.6989 24.3019 34.1587 23.3071 31.2731C22.3075 28.3827 23.8264 25.2144 26.7233 24.2152C39.5919 19.7456 53.6397 19.9454 65.2661 24.7563C85.4425 33.1009 97.1902 52.632 95.9043 75.7456C95.7053 78.7091 93.2694 81 90.358 81Z" fill="#015592" fill-opacity="0.5"/>
<path id="Path_11" d="M44 116.997C44 117.392 43.9646 117.782 43.8888 118.167C43.8079 118.556 43.6967 118.931 43.5451 119.295C43.3934 119.66 43.2115 120.004 42.989 120.333C42.7717 120.657 42.524 120.96 42.246 121.239C41.968 121.517 41.6647 121.77 41.3361 121.988C41.0076 122.205 40.6639 122.393 40.2999 122.539C39.936 122.691 39.5569 122.808 39.1727 122.884C38.7885 122.96 38.3943 123 38 123C37.6057 123 37.2165 122.96 36.8324 122.884C36.4431 122.808 36.0691 122.691 35.7051 122.539C35.3412 122.393 34.9975 122.205 34.6689 121.988C34.3404 121.77 34.0371 121.517 33.7591 121.239C33.481 120.96 33.2334 120.657 33.011 120.333C32.7936 120.004 32.6116 119.66 32.46 119.295C32.3083 118.931 32.1921 118.556 32.1163 118.167C32.0404 117.782 32 117.392 32 116.997C32 116.603 32.0404 116.213 32.1163 115.828C32.1921 115.444 32.3083 115.064 32.46 114.705C32.6116 114.34 32.7936 113.991 33.011 113.667C33.2334 113.338 33.481 113.035 33.7591 112.756C34.0371 112.478 34.3404 112.23 34.6689 112.012C34.9975 111.79 35.3412 111.607 35.7051 111.456C36.0691 111.304 36.4431 111.192 36.8324 111.116C37.2165 111.035 37.6057 111 38 111C38.3943 111 38.7885 111.035 39.1727 111.116C39.5569 111.192 39.936 111.304 40.2999 111.456C40.6639 111.607 41.0076 111.79 41.3361 112.012C41.6647 112.23 41.968 112.478 42.246 112.756C42.524 113.035 42.7717 113.338 42.989 113.667C43.2115 113.991 43.3934 114.34 43.5451 114.705C43.6967 115.064 43.8079 115.444 43.8888 115.828C43.9646 116.213 44 116.603 44 116.997Z" fill="#7241DA"/>
</g>
<path id="BeAware" d="M153.994 77.9248C155.143 78.0479 156.291 78.1504 157.439 78.2324C158.629 78.2734 159.777 78.2939 160.885 78.2939C168.76 78.2939 174.666 76.5713 178.604 73.126C182.582 69.6807 184.571 64.5332 184.571 57.6836C184.571 53.2129 183.115 49.9111 180.203 47.7783C177.332 45.6455 172.923 44.5791 166.976 44.5791C165.909 44.5791 164.822 44.6201 163.715 44.7021C162.607 44.7432 161.459 44.8252 160.27 44.9482L153.994 77.9248ZM161.377 37.75C161.5 37.75 161.623 37.75 161.746 37.75C163.674 37.9141 165.068 37.9961 165.93 37.9961C172.656 37.9961 177.865 36.2939 181.557 32.8896C185.248 29.4854 187.094 24.6865 187.094 18.4932C187.094 14.5967 185.822 11.6846 183.279 9.75684C180.777 7.8291 176.963 6.86523 171.836 6.86523C171.016 6.86523 169.642 6.94727 167.714 7.11133C167.427 7.11133 167.222 7.11133 167.099 7.11133L161.377 37.75ZM141.628 0.466797H179.403C187.771 0.466797 194.005 1.7998 198.106 4.46582C202.208 7.09082 204.259 11.0898 204.259 16.4629C204.259 22.1641 202.393 27.0449 198.66 31.1055C194.928 35.125 189.514 38.0576 182.418 39.9033C188.816 40.1904 193.677 41.8105 196.999 44.7637C200.321 47.7168 201.982 51.8799 201.982 57.2529C201.982 66.1533 198.865 73.0029 192.631 77.8018C186.396 82.6006 177.496 85 165.93 85H128.4V78.8477L136.46 78.1709L138.367 76.3252L151.103 8.77246L149.688 6.98828L141.628 6.37305V0.466797ZM229.237 51.1006C235.759 50.8135 241.173 49.1934 245.479 46.2402C249.827 43.2871 252.001 39.8213 252.001 35.8428C252.001 33.874 251.427 32.3154 250.278 31.167C249.171 30.0186 247.674 29.4443 245.787 29.4443C242.342 29.4443 239.122 31.3721 236.128 35.2275C233.175 39.042 230.878 44.333 229.237 51.1006ZM228.191 56.3916C228.191 56.4736 228.171 56.6172 228.13 56.8223C228.007 58.3398 227.945 59.4678 227.945 60.2061C227.945 65.4561 229.114 69.5166 231.452 72.3877C233.79 75.2588 237.112 76.6943 241.419 76.6943C244.208 76.6943 247.264 75.9561 250.586 74.4795C253.949 72.9619 257.477 70.7471 261.168 67.835V75.5254C256.656 79.0117 252.165 81.6572 247.694 83.4619C243.265 85.2256 239.061 86.1074 235.082 86.1074C228.109 86.1074 222.654 83.9951 218.717 79.7705C214.779 75.5459 212.811 69.6807 212.811 62.1748C212.811 56.1865 214.021 50.5674 216.44 45.3174C218.901 40.0674 222.429 35.4941 227.022 31.5977C230.222 28.8906 233.749 26.7988 237.604 25.3223C241.46 23.8457 245.295 23.1074 249.109 23.1074C253.949 23.1074 257.764 24.3379 260.553 26.7988C263.342 29.2598 264.736 32.623 264.736 36.8887C264.736 43.041 261.845 47.8604 256.062 51.3467C250.319 54.792 242.321 56.5146 232.067 56.5146C231.657 56.5146 231.021 56.4941 230.16 56.4531C229.299 56.4121 228.643 56.3916 228.191 56.3916ZM311.925 15.6016L294.083 48.332H317.093L311.925 15.6016ZM311.556 -0.271484H324.537L337.396 76.3252L338.688 77.9248L345.947 78.8477V85H312.848V78.8477L320.538 78.0479L321.892 76.2021L318.385 55.2842H290.269L278.702 76.4482L279.933 78.2939L287.377 78.8477V85H260.307V78.8477L267.32 77.9248L311.556 -0.271484ZM366.496 22.7383H372.279L374.802 68.7578C379.724 59.6934 383.907 51.7568 387.353 44.9482C390.798 38.0986 393.874 31.6592 396.581 25.6299L408.394 24.6455C408.722 31.085 409.111 38.3857 409.562 46.5479C410.014 54.71 410.567 63.5283 411.224 73.0029C415.694 67.0967 419.406 61.8262 422.359 57.1914C425.312 52.5156 427.527 48.4756 429.004 45.0713L425.928 26.1836C426.994 25.0352 428.184 24.1738 429.496 23.5996C430.809 23.0254 432.224 22.7383 433.741 22.7383C436.202 22.7383 438.191 23.5791 439.709 25.2607C441.227 26.9014 441.985 29.0547 441.985 31.7207C441.985 36.1914 439.627 42.3232 434.91 50.1162C430.193 57.8682 421.662 69.4961 409.316 85H398.488L395.966 41.5029C391.905 49.3779 387.906 56.9248 383.969 64.1436C380.072 71.3623 376.217 78.3145 372.402 85H360.59L361.697 81.124L358.929 33.1973L348.47 31.7207V27.5371L366.496 22.7383ZM487.144 28.9521C486.979 28.9521 486.713 28.9316 486.344 28.8906C486.016 28.8496 485.729 28.8291 485.482 28.8291C479.453 28.8291 474.347 31.9258 470.163 38.1191C466.021 44.2715 463.949 52.0029 463.949 61.3135C463.949 66.0303 464.749 69.6191 466.349 72.0801C467.989 74.541 470.389 75.7715 473.547 75.7715C475.393 75.7715 477.341 75.2998 479.392 74.3564C481.483 73.4131 483.78 71.916 486.282 69.8652L492.188 36.5195L487.144 28.9521ZM502.647 22.8613H510.092C509.559 24.4609 508.902 26.9834 508.123 30.4287C507.344 33.874 506.564 37.75 505.785 42.0566L501.971 62.4824C501.643 64.4512 501.376 66.2148 501.171 67.7734C500.966 69.291 500.863 70.46 500.863 71.2803C500.863 73.29 501.355 74.9307 502.34 76.2021C503.365 77.4326 504.637 78.0479 506.154 78.0479C507.385 78.0479 508.677 77.9453 510.03 77.7402C511.425 77.4941 512.901 77.1455 514.46 76.6943V81.3701C509.989 82.9697 506.236 84.1387 503.201 84.877C500.207 85.6152 497.623 85.9844 495.449 85.9844C492.373 85.9844 490.015 85.1846 488.374 83.585C486.774 81.9443 485.975 79.6064 485.975 76.5713V75.9561C482.488 79.2783 479.043 81.7803 475.639 83.4619C472.275 85.1436 469.056 85.9844 465.979 85.9844C460.278 85.9844 455.828 83.9746 452.629 79.9551C449.43 75.8945 447.83 70.2754 447.83 63.0977C447.83 58.5449 448.445 54.1973 449.676 50.0547C450.947 45.8711 452.854 41.8516 455.397 37.9961C458.515 33.2383 462.534 29.5264 467.456 26.8604C472.419 24.1943 477.71 22.8613 483.329 22.8613C485.667 22.8613 488.025 23.1279 490.404 23.6611C492.824 24.1533 495.347 24.8916 497.972 25.876L502.647 22.8613ZM542.638 22.8613H547.006L543.499 39.7803C547.437 34.2842 551.251 30.1006 554.942 27.2295C558.634 24.3174 561.997 22.8613 565.032 22.8613C567.78 22.8613 570.016 23.7432 571.738 25.5068C573.502 27.2295 574.384 29.4648 574.384 32.2129C574.384 35.3301 573.235 37.8936 570.938 39.9033C568.683 41.9131 565.75 42.918 562.141 42.918H561.895L558.511 33.3203C553.589 35.3711 549.795 38.1602 547.129 41.6875C544.504 45.2148 542.699 49.9111 541.715 55.7764L536.793 85H521.289L531.379 33.874L520.92 32.3359V27.9062L542.638 22.8613ZM593.087 51.1006C599.608 50.8135 605.022 49.1934 609.329 46.2402C613.677 43.2871 615.851 39.8213 615.851 35.8428C615.851 33.874 615.276 32.3154 614.128 31.167C613.021 30.0186 611.523 29.4443 609.637 29.4443C606.191 29.4443 602.972 31.3721 599.978 35.2275C597.024 39.042 594.728 44.333 593.087 51.1006ZM592.041 56.3916C592.041 56.4736 592.021 56.6172 591.979 56.8223C591.856 58.3398 591.795 59.4678 591.795 60.2061C591.795 65.4561 592.964 69.5166 595.302 72.3877C597.64 75.2588 600.962 76.6943 605.269 76.6943C608.058 76.6943 611.113 75.9561 614.436 74.4795C617.799 72.9619 621.326 70.7471 625.018 67.835V75.5254C620.506 79.0117 616.015 81.6572 611.544 83.4619C607.114 85.2256 602.91 86.1074 598.932 86.1074C591.959 86.1074 586.504 83.9951 582.566 79.7705C578.629 75.5459 576.66 69.6807 576.66 62.1748C576.66 56.1865 577.87 50.5674 580.29 45.3174C582.751 40.0674 586.278 35.4941 590.872 31.5977C594.071 28.8906 597.599 26.7988 601.454 25.3223C605.31 23.8457 609.145 23.1074 612.959 23.1074C617.799 23.1074 621.613 24.3379 624.402 26.7988C627.191 29.2598 628.586 32.623 628.586 36.8887C628.586 43.041 625.694 47.8604 619.911 51.3467C614.169 54.792 606.171 56.5146 595.917 56.5146C595.507 56.5146 594.871 56.4941 594.01 56.4531C593.148 56.4121 592.492 56.3916 592.041 56.3916Z" fill="#015697"/>
<g id="Group-3">
<path id="Path_12" d="M53 156.501C53 156.583 52.9729 156.664 52.9186 156.744C52.8644 156.826 52.783 156.908 52.6727 156.988C52.5642 157.068 52.4303 157.148 52.2676 157.226C52.1066 157.304 51.9186 157.381 51.707 157.457C51.4936 157.533 51.2549 157.606 50.9927 157.679C50.7305 157.751 50.4447 157.82 50.1355 157.889C49.8262 157.957 49.4953 158.022 49.1409 158.086C48.7882 158.149 48.4139 158.209 48.0214 158.268C47.6272 158.326 47.2149 158.38 46.7845 158.433C46.3541 158.484 45.9074 158.533 45.4445 158.578C44.9815 158.624 44.5041 158.666 44.014 158.706C43.5221 158.744 43.0194 158.778 42.5058 158.809C41.9922 158.842 41.4677 158.869 40.9343 158.893C40.4026 158.916 39.8619 158.936 39.3175 158.953C38.7714 158.967 38.2198 158.98 37.6665 158.989C37.1131 158.996 36.5561 159 36.0009 159C35.4439 159 34.8887 158.996 34.3336 158.989C33.7802 158.98 33.2304 158.967 32.6843 158.953C32.1381 158.936 31.5974 158.916 31.0657 158.893C30.5323 158.869 30.0096 158.842 29.4942 158.809C28.9806 158.778 28.4779 158.744 27.986 158.706C27.4959 158.666 27.0185 158.624 26.5556 158.578C26.0926 158.533 25.6459 158.484 25.2155 158.433C24.7851 158.38 24.3728 158.326 23.9786 158.268C23.5861 158.209 23.2118 158.149 22.8592 158.086C22.5065 158.022 22.1738 157.957 21.8645 157.889C21.5553 157.82 21.2696 157.751 21.0073 157.679C20.7451 157.606 20.5064 157.533 20.2948 157.457C20.0814 157.381 19.8934 157.304 19.7324 157.226C19.5697 157.148 19.4358 157.068 19.3273 156.988C19.2188 156.908 19.1356 156.826 19.0814 156.744C19.0271 156.664 19 156.583 19 156.501C19 156.419 19.0271 156.337 19.0814 156.256C19.1356 156.174 19.2188 156.092 19.3273 156.012C19.4358 155.932 19.5697 155.852 19.7324 155.774C19.8934 155.696 20.0814 155.619 20.2948 155.543C20.5064 155.469 20.7451 155.394 21.0073 155.321C21.2696 155.249 21.5553 155.18 21.8645 155.111C22.1738 155.043 22.5065 154.978 22.8592 154.914C23.2118 154.851 23.5861 154.791 23.9786 154.732C24.3728 154.674 24.7851 154.62 25.2155 154.567C25.6459 154.516 26.0926 154.467 26.5556 154.422C27.0185 154.376 27.4959 154.334 27.986 154.294C28.4779 154.256 28.9806 154.222 29.4942 154.191C30.0096 154.158 30.5323 154.131 31.0657 154.107C31.5974 154.084 32.1381 154.064 32.6843 154.047C33.2304 154.033 33.7802 154.02 34.3336 154.013C34.8887 154.004 35.4439 154 36.0009 154C36.5561 154 37.1131 154.004 37.6665 154.013C38.2198 154.02 38.7714 154.033 39.3175 154.047C39.8619 154.064 40.4026 154.084 40.9343 154.107C41.4677 154.131 41.9922 154.158 42.5058 154.191C43.0194 154.222 43.5221 154.256 44.014 154.294C44.5041 154.334 44.9815 154.376 45.4445 154.422C45.9074 154.467 46.3541 154.516 46.7845 154.567C47.2149 154.62 47.6272 154.674 48.0214 154.732C48.4139 154.791 48.7882 154.851 49.1409 154.914C49.4953 154.978 49.8262 155.043 50.1355 155.111C50.4447 155.18 50.7305 155.249 50.9927 155.321C51.2549 155.394 51.4936 155.469 51.707 155.543C51.9186 155.619 52.1066 155.696 52.2676 155.774C52.4303 155.852 52.5642 155.932 52.6727 156.012C52.783 156.092 52.8644 156.174 52.9186 156.256C52.9729 156.337 53 156.419 53 156.501Z" fill="#490000"/>
</g>
<path id="THE DEAF ASSISTANT" d="M106.454 117.352H133.054V125.416H115.19V133.48H131.71V141.544H115.19V157H106.454V117.352ZM149.299 117.352H156.523L173.771 157H163.915L160.499 148.6H145.099L141.795 157H132.163L149.299 117.352ZM152.659 128.888L147.843 141.208H157.531L152.659 128.888ZM177.759 117.352H190.975L200.103 143.224H200.215L209.399 117.352H222.559V157H213.823V126.592H213.711L203.295 157H196.631L186.607 126.592H186.495V157H177.759V117.352ZM230.529 117.352H239.265V157H230.529V117.352ZM247.548 117.352H256.284V148.936H272.468V157H247.548V117.352ZM280.799 140.088L265.903 117.352H276.767L285.167 132.192L294.071 117.352H304.431L289.535 140.088V157H280.799V140.088ZM359.834 154.2C357.258 155.544 354.57 156.515 351.77 157.112C348.97 157.709 346.114 158.008 343.202 158.008C340.104 158.008 337.248 157.523 334.634 156.552C332.021 155.581 329.762 154.2 327.858 152.408C325.954 150.579 324.461 148.376 323.378 145.8C322.333 143.224 321.81 140.349 321.81 137.176C321.81 134.003 322.333 131.128 323.378 128.552C324.461 125.976 325.954 123.792 327.858 122C329.762 120.171 332.021 118.771 334.634 117.8C337.248 116.829 340.104 116.344 343.202 116.344C346.376 116.344 349.288 116.736 351.938 117.52C354.626 118.267 356.978 119.573 358.994 121.44L352.834 128.16C351.64 126.928 350.296 125.995 348.802 125.36C347.309 124.725 345.442 124.408 343.202 124.408C341.336 124.408 339.637 124.725 338.106 125.36C336.613 125.995 335.325 126.891 334.242 128.048C333.16 129.168 332.32 130.512 331.722 132.08C331.162 133.648 330.882 135.347 330.882 137.176C330.882 139.043 331.162 140.76 331.722 142.328C332.32 143.859 333.16 145.203 334.242 146.36C335.325 147.48 336.613 148.357 338.106 148.992C339.637 149.627 341.336 149.944 343.202 149.944C345.106 149.944 346.749 149.739 348.13 149.328C349.512 148.88 350.613 148.432 351.434 147.984V141.544H344.322V133.48H359.834V154.2ZM380.572 117.352H387.796L405.044 157H395.188L391.772 148.6H376.372L373.068 157H363.436L380.572 117.352ZM383.932 128.888L379.116 141.208H388.804L383.932 128.888ZM411.563 125.08H400.251V117.352H431.611V125.08H420.299V157H411.563V125.08ZM436.048 117.352H444.784V132.136H461.752V117.352H470.488V157H461.752V139.864H444.784V157H436.048V117.352ZM478.876 117.352H505.812V125.416H487.612V132.808H504.804V140.872H487.612V148.936H506.82V157H478.876V117.352ZM513.813 117.352H529.157C531.173 117.352 533.077 117.557 534.869 117.968C536.699 118.341 538.285 118.995 539.629 119.928C541.011 120.824 542.093 122.056 542.877 123.624C543.699 125.155 544.109 127.077 544.109 129.392C544.109 132.192 543.381 134.581 541.925 136.56C540.469 138.501 538.341 139.733 535.541 140.256L545.621 157H535.149L526.861 141.152H522.549V157H513.813V117.352ZM522.549 133.76H527.701C528.485 133.76 529.307 133.741 530.165 133.704C531.061 133.629 531.864 133.461 532.573 133.2C533.283 132.901 533.861 132.453 534.309 131.856C534.795 131.259 535.037 130.419 535.037 129.336C535.037 128.328 534.832 127.525 534.421 126.928C534.011 126.331 533.488 125.883 532.853 125.584C532.219 125.248 531.491 125.024 530.669 124.912C529.848 124.8 529.045 124.744 528.261 124.744H522.549V133.76ZM550.014 117.352H558.75V157H550.014V117.352ZM566.696 117.352H578.568L595.424 144.904H595.536V117.352H604.272V157H592.848L575.544 128.776H575.432V157H566.696V117.352ZM648.256 154.2C645.68 155.544 642.992 156.515 640.192 157.112C637.392 157.709 634.536 158.008 631.624 158.008C628.525 158.008 625.669 157.523 623.056 156.552C620.443 155.581 618.184 154.2 616.28 152.408C614.376 150.579 612.883 148.376 611.8 145.8C610.755 143.224 610.232 140.349 610.232 137.176C610.232 134.003 610.755 131.128 611.8 128.552C612.883 125.976 614.376 123.792 616.28 122C618.184 120.171 620.443 118.771 623.056 117.8C625.669 116.829 628.525 116.344 631.624 116.344C634.797 116.344 637.709 116.736 640.36 117.52C643.048 118.267 645.4 119.573 647.416 121.44L641.256 128.16C640.061 126.928 638.717 125.995 637.224 125.36C635.731 124.725 633.864 124.408 631.624 124.408C629.757 124.408 628.059 124.725 626.528 125.36C625.035 125.995 623.747 126.891 622.664 128.048C621.581 129.168 620.741 130.512 620.144 132.08C619.584 133.648 619.304 135.347 619.304 137.176C619.304 139.043 619.584 140.76 620.144 142.328C620.741 143.859 621.581 145.203 622.664 146.36C623.747 147.48 625.035 148.357 626.528 148.992C628.059 149.627 629.757 149.944 631.624 149.944C633.528 149.944 635.171 149.739 636.552 149.328C637.933 148.88 639.035 148.432 639.856 147.984V141.544H632.744V133.48H648.256V154.2Z" fill="#015697"/>
</g>
<defs>
<clipPath id="clip0_1104_1029">
<rect width="652" height="161" fill="white"/>
</clipPath>
</defs>
</svg>
